<?xml version='1.0' encoding='utf-8'?>
<svg xmlns="http://www.w3.org/2000/svg" width="100%" height="100%" viewBox="0 0 6887 4837"
    version="1.1"
    style="fill-rule:evenodd;clip-rule:evenodd;stroke-linejoin:round;stroke-miterlimit:2;">
    <g transform="matrix(1,0,0,1,-17042.1,-6234.32)">
        <g id="Page-11" transform="matrix(11.5682,0,0,5.74463,17042.1,6234.32)">
            <rect x="0" y="0" width="595.276" height="841.89" style="fill:none;" />
            <clipPath id="_clip1">
                <rect x="0" y="0" width="595.276" height="841.89" />
            </clipPath>
            <g clip-path="url(#_clip1)">
                <g transform="matrix(0.720367,0,0,2.07164,-31.4561,-99.4177)">
                    <rect x="0" y="0" width="921.26" height="708.662" style="fill:white;" />
                </g>
                <g id="Layer-1"> </g>
                <g transform="matrix(0.365782,0,0,0.736589,-217.603,-11730.7)">
                    <g transform="matrix(0,2.74956,2.74956,0,1403.86,16675.7)">
                        <path
                            d="M84.365,-84.365C77.153,-84.365 71.305,-46.594 71.305,0C71.305,46.594 77.153,84.365 84.365,84.365C91.578,84.365 97.425,46.594 97.425,0C97.425,-46.594 91.578,-84.365 84.365,-84.365"
                            style="fill:rgb(209,211,212);fill-rule:nonzero;" />
                    </g>
                    <g transform="matrix(2.74956,0,0,2.74956,2060.14,16545.1)">
                        <path
                            d="M0,54.205C-0.021,54.207 -0.032,54.156 -0.049,54.136C-0.067,54.149 -0.094,54.204 -0.11,54.205C-0.494,54.226 -0.157,50.889 -0.551,45.833C-1.17,40.37 -2.959,33.015 -8.311,26.133C-16.93,15.051 -29.754,11.685 -29.291,10.886C-28.925,10.253 -20.414,11.521 -12.521,16.612C-21.247,7.072 -31.617,3.925 -31.188,3.1C-30.681,2.123 -15.355,4.961 -6.088,16.776C0.407,25.055 1.919,35.176 1.79,42.815C1.958,49.31 0.471,54.182 0,54.205M-53.656,0.814L-53.656,-18.709C-53.656,-19.767 -52.795,-20.628 -51.737,-20.628L-18.723,-20.628C-17.664,-20.628 -16.804,-19.767 -16.804,-18.709L-16.804,0.814C-22.382,-1.861 -28.63,-3.361 -35.229,-3.361C-41.83,-3.361 -48.078,-1.861 -53.656,0.814M-9.896,4.979C-9.76,4.357 -9.684,3.713 -9.684,3.051L-9.684,-18.709C-9.684,-23.693 -13.738,-27.748 -18.723,-27.748L-51.737,-27.748C-56.722,-27.748 -60.776,-23.693 -60.776,-18.709L-60.776,3.051C-60.776,3.713 -60.7,4.357 -60.564,4.979C-71.071,12.749 -77.888,25.225 -77.888,39.296C-77.888,62.855 -58.789,81.953 -35.229,81.953C-11.671,81.953 7.428,62.855 7.428,39.296C7.428,25.225 0.611,12.749 -9.896,4.979"
                            style="fill:rgb(6,103,56);fill-rule:nonzero;" />
                    </g>
                    <g transform="matrix(2.74956,0,0,2.74956,895.125,16691.6)">
                        <path
                            d="M0,-52.577C-5.578,-55.252 -11.827,-56.753 -18.426,-56.753C-25.026,-56.753 -31.275,-55.252 -36.853,-52.577L-36.853,-72.1C-36.853,-73.158 -35.992,-74.019 -34.934,-74.019L-1.919,-74.019C-0.861,-74.019 0,-73.158 0,-72.1L0,-52.577ZM-40.743,-38.431C-34.636,-41.921 -28.908,-42.791 -28.625,-42.251C-28.212,-41.461 -39.68,-38.133 -47.388,-27.179C-50.523,-22.723 -52.277,-18.07 -53.283,-13.864C-54.79,-5.596 -53.999,0.599 -54.52,0.57C-54.571,0.568 -54.64,0.471 -54.71,0.352C-54.736,0.488 -54.77,0.574 -54.821,0.57C-55.245,0.548 -56.581,-4.306 -56.419,-10.763C-56.557,-18.408 -55.052,-28.56 -48.543,-36.858C-39.274,-48.674 -23.949,-51.511 -23.44,-50.535C-23.034,-49.752 -32.338,-46.862 -40.743,-38.431M6.908,-48.412C7.043,-49.034 7.12,-49.679 7.12,-50.341L7.12,-72.1C7.12,-77.084 3.065,-81.139 -1.919,-81.139L-34.934,-81.139C-39.917,-81.139 -43.973,-77.084 -43.973,-72.1L-43.973,-50.341C-43.973,-49.678 -43.896,-49.034 -43.761,-48.412C-54.268,-40.642 -61.084,-28.167 -61.084,-14.095C-61.084,9.464 -41.985,28.562 -18.426,28.562C5.133,28.562 24.231,9.464 24.231,-14.095C24.231,-28.167 17.415,-40.642 6.908,-48.412"
                            style="fill:rgb(6,103,56);fill-rule:nonzero;" />
                    </g>
                    <g transform="matrix(2.74956,0,0,2.74956,1949.23,16833.5)">
                        <path
                            d="M0,-132.663C-21.361,-95.376 -35.01,-88.158 -43.828,-89.631C-50.635,-90.767 -54.71,-96.745 -65.949,-97.643C-77.029,-98.529 -80.507,-93.371 -88.11,-92.96C-100.067,-92.314 -107.515,-104.207 -117.82,-118.157C-122.84,-124.952 -128.541,-132.23 -135.771,-138.789C-138.209,-141.003 -140.177,-142.538 -140.696,-142.948C-149.433,-149.838 -162.559,-160.189 -177.116,-159.886C-187.412,-159.672 -187.473,-154.355 -198.812,-154.354C-209.147,-154.352 -212.856,-158.769 -220.654,-159.983C-233.743,-162.021 -245.166,-152.976 -257.479,-142.948C-289.296,-117.033 -293.083,-92.043 -310.064,-92.96C-317.669,-93.371 -321.145,-98.529 -332.226,-97.643C-343.593,-96.735 -347.751,-90.737 -354.348,-89.631C-363.176,-88.15 -376.849,-95.378 -398.28,-132.757C-399.036,-133.336 -400.917,-134.613 -403.634,-134.82C-407.274,-135.098 -409.862,-133.262 -410.528,-132.757C-409.777,-124.865 -407.764,-113.197 -401.972,-100.274C-400.589,-97.189 -392.313,-78.901 -375.512,-64.6C-340.62,-34.904 -298.501,-41.125 -292.284,-42.151C-279.237,0.441 -241.027,29.287 -199.521,29.358C-199.377,29.358 -199.233,29.347 -199.088,29.347C-198.943,29.347 -198.798,29.358 -198.654,29.358C-157.148,29.287 -118.938,0.441 -105.891,-42.151C-99.974,-41.135 -57.842,-34.642 -22.664,-64.6C7.696,-90.456 11.665,-125.396 12.329,-132.663C11.102,-133.227 8.705,-134.128 5.597,-134.009C3.097,-133.912 1.152,-133.194 0,-132.663"
                            style="fill:rgb(247,147,29);fill-rule:nonzero;" />
                    </g>
                    <g transform="matrix(-1.46607,-2.32609,-2.32609,1.46607,1649.31,16545.5)">
                        <path
                            d="M-50.487,-103.085C-49.609,-102.657 -67.168,-80.518 -69.015,-46.918C-71.262,-6.006 -48.672,23.858 -50.487,24.748C-52.173,25.573 -74.341,1.12 -76.19,-32.832C-78.353,-72.544 -51.54,-103.595 -50.487,-103.085"
                            style="fill:rgb(229,133,36);fill-rule:nonzero;" />
                    </g>
                    <g transform="matrix(-1.46607,2.32609,2.32609,1.46607,1158.42,16545.5)">
                        <path
                            d="M50.486,-103.084C49.609,-102.658 67.168,-80.517 69.014,-46.919C71.262,-6.006 48.671,23.859 50.486,24.749C52.172,25.574 74.34,1.12 76.189,-32.832C78.352,-72.545 51.539,-103.596 50.486,-103.084"
                            style="fill:rgb(229,133,36);fill-rule:nonzero;" />
                    </g>
                    <g transform="matrix(2.74956,0,0,2.74956,1593.2,16790.9)">
                        <path
                            d="M0,-11.666C-0.128,-11.799 -0.989,-11.26 -2.57,-10.086C4.459,-17.153 8.45,-22.652 7.913,-23.212C7.783,-23.348 6.888,-22.782 5.248,-21.561C8.86,-25.695 10.743,-28.557 10.364,-28.952C10.239,-29.082 9.417,-28.573 7.898,-27.451C11.333,-31.417 13.116,-34.147 12.746,-34.533C12.535,-34.753 10.336,-33.151 6.129,-29.825C11.4,-36.065 14.237,-40.629 13.732,-41.098C13.316,-41.484 6.445,-35.228 -7.299,-22.715C-25.034,-6.566 -33.889,1.524 -33.249,2.327C-33.244,2.333 -33.229,2.33 -33.223,2.336C-35.719,4.557 -36.876,5.805 -36.655,6.117C-36.364,6.529 -33.874,5.42 -30.477,3.532C-36.479,8.541 -39.375,11.22 -39.037,11.698C-38.735,12.126 -36.068,10.915 -32.479,8.899C-38.776,14.144 -41.834,16.949 -41.488,17.438C-41.032,18.084 -35.188,14.999 -28.895,11.025C-42.95,22.44 -49.916,28.257 -49.401,28.984C-48.813,29.818 -39.247,24.44 -31.322,18.949C-12.219,5.712 0.947,-10.678 0,-11.666"
                            style="fill:rgb(229,133,36);fill-rule:nonzero;" />
                    </g>
                    <g transform="matrix(2.74956,0,0,2.74956,1492.72,16219.9)">
                        <path
                            d="M0,-23.272C9.598,-30.332 18.306,-32.827 18.712,-32.106C19.304,-31.058 2.006,-23.702 -11.444,-3.057C-13.609,0.267 -15.43,3.565 -16.975,6.746C-23.37,22.493 -24.715,33.936 -25.888,33.641C-25.937,33.628 -25.986,33.583 -26.035,33.527C-26.097,33.612 -26.157,33.659 -26.217,33.643C-26.562,33.548 -26.828,31.698 -26.759,28.689C-26.963,18.878 -23.979,-3.851 -10.151,-24.114C10.295,-54.072 44.63,-64.236 45.657,-62.563C46.564,-61.084 21.022,-51.03 0,-23.272M50.084,-68.399C44.906,-67.492 -0.843,-58.68 -21.64,-16.218C-34.809,10.669 -30.695,36.192 -28.817,45.127C-19.752,43.054 6.844,35.726 27.544,10.733C55.125,-22.566 50.942,-61.511 50.084,-68.399"
                            style="fill:rgb(164,206,71);fill-rule:nonzero;" />
                    </g>
                    <g transform="matrix(2.74956,0,0,2.74956,1365.35,16129.5)">
                        <path
                            d="M0,62.776C-0.037,62.813 -0.124,62.811 -0.235,62.789C-2.083,62.803 -14.482,54.647 -22.406,40.527C-31.625,24.101 -30.885,6.516 -29.686,6.277C-28.614,6.064 -27.6,19.795 -18.187,37.283C-17.775,38.049 -17.357,38.781 -16.94,39.513C-18.244,33.725 -17.91,29.265 -17.452,29.172C-16.821,29.046 -16.225,37.215 -10.688,47.621C-8.734,51.293 -6.68,54.276 -4.899,56.596C-1.975,60.035 -0.029,62.019 -0.004,62.607C0.025,62.683 0.032,62.744 0,62.776M6.783,28.231C-4.356,2.226 -28.273,-6.977 -32.54,-8.537C-33.558,-5.252 -42.101,24.009 -23.602,48.803C-11.888,64.503 4.196,69.735 9.958,71.313C11.46,65.417 15.143,47.747 6.783,28.231"
                            style="fill:rgb(164,206,71);fill-rule:nonzero;" />
                    </g>
                    <g transform="matrix(2.74956,0,0,2.74956,1409.07,16362.4)">
                        <path
                            d="M0,-3.782C-0.818,-9.049 -1.12,-13.479 -1.241,-16.592C-1.115,-17.448 -1.76,-18.126 -2.355,-18.126C-2.951,-18.126 -3.596,-17.448 -3.47,-16.592C-3.591,-13.479 -3.893,-9.049 -4.71,-3.782C-6.225,5.979 -8.249,10.488 -5.867,12.725C-4.143,14.344 -0.568,14.344 1.156,12.725C3.538,10.488 1.515,5.979 0,-3.782"
                            style="fill:rgb(164,206,71);fill-rule:nonzero;" />
                    </g>
                    <g transform="matrix(2.74956,0,0,2.74956,1806.27,16591.3)">
                        <path
                            d="M0,4.505C0.669,1.351 -6.917,-4.55 -14.602,-4.986C-22.421,-5.43 -24.485,0.118 -33.217,0.611C-43.456,1.189 -50.933,-5.856 -51.225,-5.351C-51.536,-4.813 -43.074,3.153 -30.176,6.695C-16.824,10.361 -0.889,8.693 0,4.505"
                            style="fill:rgb(229,133,36);fill-rule:nonzero;" />
                    </g>
                    <g transform="matrix(2.74956,0,0,2.74956,998.887,16593.2)">
                        <path
                            d="M0,4.505C-0.669,1.351 6.916,-4.55 14.601,-4.986C22.421,-5.43 24.485,0.118 33.217,0.611C43.456,1.189 50.932,-5.856 51.225,-5.351C51.536,-4.813 43.074,3.153 30.175,6.695C16.824,10.361 0.888,8.692 0,4.505"
                            style="fill:rgb(229,133,36);fill-rule:nonzero;" />
                    </g>
                    <g transform="matrix(2.74956,0,0,2.74956,1277.34,16450.8)">
                        <path
                            d="M0,-5.041C0.04,-10.458 10.436,-16.034 19.346,-16.843C30.805,-17.883 33.392,-10.456 45.628,-10.759C57.082,-11.043 58.865,-17.652 69.477,-17.208C79.854,-16.774 91.542,-9.892 91.378,-3.946C91.142,4.573 66.525,12.842 45.019,12.48C23.681,12.121 -0.06,3.173 0,-5.041"
                            style="fill:rgb(229,133,36);fill-rule:nonzero;" />
                    </g>
                    <g transform="matrix(2.74956,0,0,2.74956,1412.37,16646.1)">
                        <path
                            d="M0,59.084C0.551,59.527 2.306,58.384 5.035,55.998C1.527,61.836 -0.164,65.945 0.648,66.601C0.812,66.733 1.12,66.679 1.49,66.541C-2.539,73.046 -4.559,77.725 -3.688,78.426C-1.826,79.927 13.536,63.628 35.557,40.264C52.479,22.311 60.939,13.334 59.843,12.077C59.305,11.459 56.518,12.602 52.443,15.063C60.899,5.946 64.957,1.144 64.18,0.251C63.541,-0.482 59.757,1.247 54.383,4.743C61.075,-2.565 64.227,-6.468 63.532,-7.265C62.993,-7.883 60.206,-6.74 56.133,-4.28C64.588,-13.395 68.646,-18.198 67.868,-19.091C66.341,-20.843 46.946,-8.661 30.356,8.664C13.894,25.856 2.461,45.746 4.338,47.259C4.502,47.392 4.809,47.337 5.18,47.199C1.15,53.704 -0.869,58.383 0,59.084"
                            style="fill:rgb(199,134,58);fill-rule:nonzero;" />
                    </g>
                    <g transform="matrix(2.74956,0,0,2.74956,1342.22,16623.7)">
                        <path
                            d="M0,72.891C0.653,73.113 1.981,71.542 3.868,68.56C2.261,74.859 1.869,79.049 2.833,79.376C3.029,79.443 3.304,79.297 3.615,79.058C1.711,86.116 1.175,90.915 2.208,91.265C4.418,92.015 14.189,72.674 28.194,44.949C38.957,23.645 44.337,12.993 42.925,12.219C42.232,11.838 39.923,13.733 36.783,17.205C42.119,6.43 44.553,0.879 43.551,0.329C42.729,-0.122 39.647,2.608 35.579,7.411C39.774,-1.2 41.612,-5.666 40.718,-6.156C40.024,-6.536 37.716,-4.641 34.577,-1.17C39.912,-11.944 42.345,-17.496 41.344,-18.045C39.376,-19.124 24.563,-2.177 13.931,18.463C3.379,38.947 -1.601,60.246 0.626,61.001C0.821,61.068 1.096,60.923 1.408,60.684C-0.497,67.742 -1.033,72.541 0,72.891"
                            style="fill:rgb(251,172,75);fill-rule:nonzero;" />
                    </g>
                </g>
            </g>
        </g>
    </g>
</svg>